PathFileType	4	(X/Y/Z)	RBDS014\RBDS014runT45.trc
DataRate	CameraRate	NumFrames	NumMarkers	Units	OrigDataRate	OrigDataStartFrame	OrigNumFrames
150.000000	150.000000	4	32	mm	150.000000	2812	4500
Frame#	Time	L.ASIS			L.Heel.Bottom			L.Heel.Lateral			L.Heel.Top			L.Iliac.Crest			L.MT1			L.MT5			L.PSIS			L.Shank.Bottom.Lateral			L.Shank.Bottom.Medial			L.Shank.Top.Lateral			L.Shank.Top.Medial			L.Thigh.Bottom.Lateral			L.Thigh.Bottom.Medial			L.Thigh.Top.Lateral			L.Thigh.Top.Medial			R.ASIS			R.ASY			R.Heel.Bottom			R.Heel.Lateral			R.Heel.Top			R.Iliac.Crest			R.MT5			R.PSIS			R.Shank.Bottom.Lateral			R.Shank.Bottom.Medial			R.Shank.Top.Lateral			R.Shank.Top.Medial			R.Thigh.Bottom.Lateral			R.Thigh.Bottom.Medial			R.Thigh.Top.Lateral			R.Thigh.Top.Medial			
		X1	Y1	Z1	X2	Y2	Z2	X3	Y3	Z3	X4	Y4	Z4	X5	Y5	Z5	X6	Y6	Z6	X7	Y7	Z7	X8	Y8	Z8	X9	Y9	Z9	X10	Y10	Z10	X11	Y11	Z11	X12	Y12	Z12	X13	Y13	Z13	X14	Y14	Z14	X15	Y15	Z15	X16	Y16	Z16	X17	Y17	Z17	X18	Y18	Z18	X19	Y19	Z19	X20	Y20	Z20	X21	Y21	Z21	X22	Y22	Z22	X23	Y23	Z23	X24	Y24	Z24	X25	Y25	Z25	X26	Y26	Z26	X27	Y27	Z27	X28	Y28	Z28	X29	Y29	Z29	X30	Y30	Z30	X31	Y31	Z31	X32	Y32	Z32	

2813	18.74666666666667	2135.197732452884	1050.352845770281	915.6591771696644	1738.450033307474	50.53064250007876	1009.182264015035	1761.716963929887	68.45959663447374	965.9216805395996	1754.26766298296	99.42310239746816	1007.393377380252	2057.247138192537	1111.425076365197	883.9334278290908	1974.485940380308	48.26322313816478	1039.768215992173	1926.916731536579	37.99595421732715	924.9010080135024	1969.587344119229	1072.323461093306	1012.032566732702	1877.134561573034	186.0624557424659	929.5907873258736	1839.93844252404	213.4574780443936	960.868786693677	1908.755173975582	256.0172990835584	905.652407373226	1874.025036213011	283.4475303118175	936.8793762598489	2071.738955426601	669.8048032309716	853.0520399784409	2011.132571914491	660.6191919560088	891.8322609224057	2047.625387574785	777.6316690505766	846.6747008055081	1993.78530064962	770.2839261036788	888.1344537219567	2168.276859471567	1032.431565354042	1160.52670542842	1914.961193633714	418.0069252785175	1080.787459625326	1800.344006414209	590.8654373355309	1077.535112402172	1830.757453712151	575.1892653701441	1114.824891537206	1852.13648552833	595.2960703807497	1073.103149980369	2106.304449864973	1103.480495721272	1193.018917366772	1863.575996093468	402.0297864257525	1150.842088600844	1990.384926276151	1064.669020359779	1101.896467633075	1985.879384705784	559.9495923480306	1126.094932805503	1985.870970458325	592.9981897455989	1086.977462092696	2068.680979871008	574.3856534533606	1136.60185048378	2064.334329464869	609.6350268965706	1097.202406084832	2304.773195125578	677.7403261393098	1171.668036787258	2251.564691278697	639.764089788154	1138.219947887575	2231.580904510743	756.3688423163959	1193.879774455831	2180.293986683923	719.608135610456	1164.051280879095	
2814	18.75333333333333	2136.015149880694	1051.383278160888	915.6558082676797	1708.982118611407	56.75143441709281	1009.074544727401	1732.808881415175	73.51220013440552	965.668036127249	1726.144113842847	105.1624742304438	1006.778069108591	2060.141316074099	1113.669895972627	883.7049248884898	1944.242119112857	47.61212370730737	1040.27711759218	1896.483402644817	38.16125019799514	925.5374223469083	1970.309875314766	1074.856369175881	1011.742984993967	1850.247731641068	190.452704920878	929.7365415516377	1813.452966543317	218.2085255664112	961.149412575121	1883.017287460401	260.0085099979968	906.0393600473241	1848.605202342394	287.8073182945865	937.3460258676973	2057.978323450894	670.8325784993443	854.2187498539347	1997.291152182521	664.2174909304483	893.3743905975055	2038.417454532143	779.5064380368891	847.7855168448843	1984.471787670454	774.4919166940737	889.5191428094386	2169.122658100603	1037.296016810039	1160.337515518281	1941.567750536985	403.8879700878698	1083.30354816579	1814.028662863497	567.5099657369744	1080.52432131474	1845.826797805099	554.2561906404895	1117.55827512283	1865.264470619392	575.9620819965959	1075.608205813737	2106.367724724417	1107.799076565638	1192.832472888595	1892.220534494622	384.4210366178759	1153.703648203354	1990.691146825459	1068.262019762127	1101.621428294483	2001.862610577526	550.1099237249776	1127.781181449133	1999.181298046894	583.4285258777858	1088.959260364396	2083.424714639311	570.5366437723862	1138.081420037431	2076.237034845334	605.6612252560935	1098.871839484642	2316.009073926872	692.0531375719647	1170.512902148174	2264.363106771459	651.8368770369951	1137.034908058905	2239.371473817095	767.1810132122491	1193.515762575057	2189.62105304881	728.2383369021416	1163.576950862139	
2815	18.76	2137.193259953521	1052.616820827954	915.4554133435945	1680.139754363252	64.2600234966478	1008.848937315188	1704.586463816774	79.64171081190727	965.3189393582296	1698.866208299218	112.0090696195468	1006.031224496455	2063.68877820595	1115.893677494187	883.5456023416739	1914.155749204649	46.91195075641164	1040.759246226741	1866.209932779321	38.44227309010228	926.1492464812779	1971.491935352897	1077.509009482487	1011.551620038001	1823.937986801978	195.7350949654311	929.7928956084958	1787.569820462556	223.7613238984113	961.4344219598654	1857.721328368199	264.9738416685621	906.3979379762677	1823.625202420202	293.0452074072306	937.8655440476525	2044.303428855374	672.63714149907	855.5011555688934	1983.859705142935	668.7034165378468	895.3299746767116	2029.409064971747	781.9644940418349	848.9773289503191	1975.593628897091	779.3613892358655	891.1590757351704	2170.532224106049	1042.549120118131	1159.677173543264	1969.023145571178	389.7754814681836	1085.7615445047	1829.146875293528	542.8968222509393	1082.67398241815	1862.047256029232	532.3731389323656	1119.571918390584	1879.496234554989	555.403153989393	1077.353725906464	2107.188975588789	1112.619677103224	1192.487945241787	1921.916248591539	367.1704971828881	1156.438218553818	1991.488564951182	1072.260646633096	1101.465546069192	2018.119954159677	539.6379012986164	1129.119897097641	2012.764294705947	572.9657794181356	1090.559805809645	2097.953941154739	566.1556073656959	1139.34859039924	2087.93345288702	600.8819125439611	1100.307778686158	2326.13573692334	706.5106539365303	1169.40112825562	2275.923655054452	664.2982585950831	1136.007020124828	2246.566302462163	778.2920832507995	1193.264140679958	2198.23430076022	737.4252078187637	1163.308816871205	
2816	18.76666666666667	2138.744938360046	1054.068124527836	915.1102535995876	1652.129205443929	73.10459036004164	1008.467361238959	1677.223776317293	86.88440926543771	964.8359696009417	1672.633291037311	119.9752328962865	1005.117021069115	2067.897693502533	1118.125369987989	883.4948693717441	1884.306879303222	46.17200963182921	1041.171257042642	1836.17538639794	38.86367155984287	926.6783589165195	1973.13637057057	1080.338107897531	1011.431857372353	1798.384194135632	201.8749881929575	929.6991753029706	1762.470467355555	230.0720303184836	961.66995299813	1833.040395817165	270.8829873198015	906.6804515098494	1799.260445435806	299.1222284334723	938.3917455980744	2030.854041976303	675.2495922335513	856.8719423074585	1970.939982913109	674.0738966656824	897.6046753266396	2020.706687130851	785.0379537350635	850.2201551119701	1967.252693405914	784.892041791679	892.9992805766508	2172.43910835189	1048.119194221851	1158.587260580441	1997.376817467036	375.8546679118016	1088.125074353797	1845.936437835379	517.2766211011279	1083.996262481553	1879.614035133907	509.7380412387076	1120.866769758446	1895.067392648747	533.8127562466889	1078.345598056948	2108.616568824896	1117.881824390605	1192.055239873067	1952.65302964005	350.4530649217348	1159.029889328148	1992.772982477878	1076.666904668749	1101.406420447011	2034.817170920373	528.6082283633828	1130.085238336751	2026.835887495037	561.6560401136194	1091.72205180804	2112.423638954592	561.2088405816149	1140.33606639627	2099.636914892667	595.2405298387746	1101.420748483152	2335.150532681841	720.8397585393209	1168.330031197531	2286.219150737372	676.8554409433391	1135.162895076154	2253.145729220963	789.5013616934426	1193.094029418828	2206.090729981802	746.9503864827062	1163.246916469849	
